<svg width="32" height="32" viewBox="0 0 32 32" fill="none" xmlns="http://www.w3.org/2000/svg">
<path d="M15.567 0.711243C12.6003 0.711243 9.70016 1.59098 7.23342 3.2392C4.76669 4.88742 2.8441 7.2301 1.70878 9.97099C0.57347 12.7119 0.27642 15.7279 0.855198 18.6376C1.43398 21.5473 2.86259 24.2201 4.96038 26.3178C7.05816 28.4156 9.73091 29.8442 12.6406 30.423C15.5503 31.0018 18.5663 30.7048 21.3072 29.5694C24.0481 28.4341 26.3908 26.5115 28.039 24.0448C29.6872 21.5781 30.567 18.678 30.567 15.7112C30.5622 11.7345 28.9803 7.92192 26.1683 5.1099C23.3563 2.29789 19.5438 0.716006 15.567 0.711243V0.711243ZM29.967 15.7112C29.9671 16.2042 29.942 16.6968 29.892 17.1872L27.345 16.8872C27.381 16.5062 27.402 16.1162 27.402 15.7262C27.402 15.3362 27.384 14.9912 27.348 14.6282L29.895 14.3282C29.967 14.7722 29.967 15.2372 29.967 15.7112ZM1.16698 15.7112C1.16671 15.2263 1.19074 14.7417 1.23898 14.2592L3.78598 14.5592C3.74998 14.9342 3.72898 15.3152 3.72898 15.6992C3.72898 16.0832 3.74998 16.4642 3.78598 16.8392L1.23898 17.1392C1.19098 16.6752 1.16698 16.1992 1.16698 15.7112ZM26.757 11.8322L29.157 10.9322C29.4765 11.8391 29.7036 12.7758 29.835 13.7282L27.288 14.0282C27.182 13.2809 27.0042 12.5455 26.757 11.8322ZM26.826 15.7112C26.8256 16.4465 26.7533 17.18 26.61 17.9012L24.087 17.3192C24.2973 16.2354 24.2973 15.1211 24.087 14.0372L26.613 13.4672C26.7588 14.2062 26.8302 14.958 26.826 15.7112ZM15.567 23.7932C13.9685 23.7932 12.4059 23.3192 11.0769 22.4312C9.74778 21.5431 8.71189 20.2809 8.10018 18.8041C7.48848 17.3273 7.32842 15.7023 7.64027 14.1345C7.95212 12.5668 8.72185 11.1267 9.85214 9.99641C10.9824 8.86612 12.4225 8.09638 13.9903 7.78454C15.558 7.47269 17.183 7.63274 18.6598 8.24445C20.1366 8.85616 21.3989 9.89205 22.2869 11.2211C23.175 12.5502 23.649 14.1128 23.649 15.7112C23.6442 17.8533 22.7912 19.9062 21.2766 21.4208C19.7619 22.9355 17.709 23.7885 15.567 23.7932ZM15.84 26.9612V24.3722C16.9514 24.3376 18.0455 24.088 19.062 23.6372L20.181 25.9712C18.8152 26.59 17.3389 26.9277 15.84 26.9642V26.9612ZM10.914 25.9592L12.039 23.6282C13.0565 24.0839 14.1528 24.3376 15.267 24.3752V26.9612C13.7634 26.9234 12.2828 26.5826 10.914 25.9592ZM4.30798 15.7112C4.30727 14.9454 4.38467 14.1814 4.53898 13.4312L7.06198 14.0102C6.8449 15.0928 6.83777 16.207 7.04098 17.2922L4.51498 17.8652C4.37702 17.1556 4.3077 16.4342 4.30798 15.7112ZM15.267 4.46124V7.05024C14.1718 7.0859 13.0935 7.33027 12.09 7.77024L10.968 5.43924C12.3219 4.83115 13.7833 4.49868 15.267 4.46124ZM20.196 5.45124L19.065 7.77924C18.0557 7.33253 16.97 7.08402 15.867 7.04724V4.46124C17.3617 4.49848 18.8337 4.83512 20.196 5.45124ZM26.553 11.2832C26.2698 10.5834 25.9202 9.91237 25.509 9.27924L27.609 7.82724C28.1373 8.63154 28.5835 9.48682 28.941 10.3802L26.553 11.2832ZM26.472 12.8972L23.943 13.4672C23.6582 12.4054 23.1736 11.4075 22.515 10.5272L24.543 8.92224C25.442 10.1066 26.0966 11.4577 26.469 12.8972H26.472ZM22.143 10.0682C21.4284 9.23596 20.5633 8.5459 19.593 8.03424L20.724 5.70624C22.0421 6.38856 23.2133 7.32328 24.171 8.45724L22.143 10.0682ZM21.39 5.40024L22.59 3.13224C23.43 3.60331 24.2209 4.15705 24.951 4.78524L23.244 6.71124C22.6692 6.21615 22.0483 5.77715 21.39 5.40024ZM20.871 5.12424C20.1988 4.78463 19.4956 4.51037 18.771 4.30524L19.392 1.81524C20.3248 2.0701 21.2295 2.41888 22.092 2.85624L20.871 5.12424ZM18.186 4.16124C17.4356 3.98699 16.6699 3.88651 15.9 3.86124V1.31124C16.8787 1.33199 17.8528 1.45262 18.807 1.67124L18.186 4.16124ZM15.312 3.86124C14.5533 3.87669 13.7978 3.9651 13.056 4.12524L12.456 1.63524C13.3958 1.43206 14.3535 1.32352 15.315 1.31124L15.312 3.86124ZM12.483 4.26324C11.7488 4.46076 11.0354 4.72901 10.353 5.06424L9.16498 2.81124C10.0282 2.38005 10.9328 2.0373 11.865 1.78824L12.483 4.26324ZM9.83398 5.33724C9.16918 5.70633 8.54131 6.1383 7.95898 6.62724L6.26698 4.71924C7.00404 4.09301 7.80203 3.54225 8.64898 3.07524L9.83398 5.33724ZM10.434 5.67924L11.556 8.01024C10.5843 8.51859 9.71713 9.20559 8.99998 10.0352L6.97798 8.42124C7.94381 7.29267 9.12217 6.36506 10.446 5.69124L10.434 5.67924ZM6.61798 8.88924L8.63998 10.5032C7.97781 11.3808 7.48908 12.3766 7.19998 13.4372L4.67398 12.8582C5.0525 11.4195 5.71332 10.0703 6.61798 8.88924ZM4.60498 11.2112L2.20498 10.3112C2.57174 9.4146 3.02806 8.55726 3.56698 7.75224L5.66698 9.21024C5.24976 9.84172 4.89413 10.5118 4.60498 11.2112ZM4.39498 11.7602C4.14076 12.4777 3.9569 13.2182 3.84598 13.9712L1.30198 13.6712C1.43799 12.7121 1.67119 11.7692 1.99798 10.8572L4.39498 11.7602ZM3.84598 17.4332C3.95688 18.1863 4.14075 18.9268 4.39498 19.6442L1.99498 20.5442C1.6694 19.6331 1.43721 18.6913 1.30198 17.7332L3.84598 17.4332ZM4.60198 20.1962C4.89139 20.8999 5.24805 21.5741 5.66698 22.2092L3.56698 23.6642C3.02841 22.8611 2.57211 22.0058 2.20498 21.1112L4.60198 20.1962ZM4.64098 18.4382L7.16698 17.8652C7.4431 18.9376 7.92281 19.947 8.57998 20.8382L6.56698 22.4492C5.66472 21.254 5.01087 19.8902 4.64398 18.4382H4.64098ZM8.93998 21.3002C9.65545 22.148 10.526 22.8515 11.505 23.3732L10.383 25.7012C9.05497 25.0093 7.87727 24.0611 6.91798 22.9112L8.93998 21.3002ZM9.82198 26.0702L8.62198 28.3412C7.7844 27.8727 6.99551 27.322 6.26698 26.6972L7.96798 24.7802C8.54556 25.2684 9.16838 25.7003 9.82798 26.0702H9.82198ZM10.344 26.3432C11.0245 26.6781 11.7358 26.9464 12.468 27.1442L11.85 29.6342C10.9178 29.3852 10.0132 29.0424 9.14998 28.6112L10.344 26.3432ZM13.044 27.2852C13.7847 27.4462 14.5392 27.5356 15.297 27.5522V30.1112C14.3329 30.0935 13.3731 29.9789 12.432 29.7692L13.044 27.2852ZM15.885 27.5492C16.6421 27.5295 17.3955 27.4371 18.135 27.2732L18.735 29.7632C17.7931 29.9751 16.8322 30.0917 15.867 30.1112L15.885 27.5492ZM18.705 27.1322C19.4343 26.9319 20.1426 26.6616 20.82 26.3252L22.02 28.5962C21.157 29.0295 20.2524 29.3743 19.32 29.6252L18.705 27.1322ZM21.339 26.0492C21.9984 25.6803 22.6213 25.2493 23.199 24.7622L24.894 26.6852C24.1618 27.3042 23.3699 27.8489 22.53 28.3112L21.339 26.0492ZM20.712 25.7162L19.593 23.3822C20.5742 22.8651 21.4478 22.1656 22.167 21.3212L24.186 22.9382C23.2241 24.0855 22.0444 25.0307 20.715 25.7192L20.712 25.7162ZM24.567 22.4792L22.548 20.8622C23.2065 19.9732 23.6882 18.966 23.967 17.8952L26.49 18.4772C26.122 19.926 25.4682 21.2867 24.567 22.4792ZM26.529 20.2112L28.929 21.1112C28.5615 22.0037 28.1052 22.857 27.567 23.6582L25.467 22.1972C25.8833 21.5705 26.239 20.9055 26.529 20.2112ZM26.739 19.6622C26.9911 18.9505 27.1739 18.2161 27.285 17.4692L29.829 17.7692C29.6926 18.7212 29.4604 19.6569 29.136 20.5622L26.739 19.6622ZM27.288 7.36224L25.188 8.81424C24.7431 8.20093 24.2408 7.63137 23.688 7.11324L25.392 5.19924C26.0929 5.84911 26.728 6.56659 27.288 7.34124V7.36224ZM5.81998 5.10624L7.52098 7.02624C6.96815 7.54438 6.46589 8.11395 6.02098 8.72724L3.92098 7.26924C4.48082 6.48716 5.11694 5.76261 5.81998 5.10624ZM3.89098 24.1472L5.99098 22.6922C6.43604 23.3045 6.9383 23.8731 7.49098 24.3902L5.78698 26.3072C5.08514 25.6517 4.45003 24.9281 3.89098 24.1472ZM25.335 26.2952L23.637 24.3722C24.1894 23.857 24.6916 23.2904 25.137 22.6802L27.237 24.1412C26.6767 24.9202 26.0406 25.6417 25.338 26.2952H25.335Z" fill="#4B4B4B" stroke="#4B4B4B"/>
</svg>
