<svg width="31" height="20" viewBox="0 0 31 20" fill="none" xmlns="http://www.w3.org/2000/svg">
<path d="M28.067 3.46124H19.317V0.961243H28.067V3.46124ZM30.2245 15.9612C29.672 17.5825 27.6882 19.7112 23.8482 19.7112C20.0057 19.7112 16.8932 17.55 16.8932 12.6175C16.8932 7.72999 19.7995 5.21749 23.7257 5.21749C27.5782 5.21749 29.9307 7.44499 30.4445 10.75C30.542 11.3825 30.5807 12.235 30.5632 13.425H20.5295C20.692 17.4387 24.8832 17.565 26.2645 15.9612H30.2245ZM20.617 10.9612H26.8232C26.692 9.02749 25.4032 8.18749 23.727 8.18749C21.8945 8.18749 20.8807 9.14749 20.617 10.9612ZM8.64949 19.6962H0.566986V0.987493H9.25824C16.1032 1.08874 16.2332 7.79249 12.6582 9.61999C16.9845 11.195 17.1295 19.6962 8.64949 19.6962ZM4.31699 8.46124H8.79699C11.932 8.46124 12.4295 4.71124 8.40699 4.71124H4.31699V8.46124ZM8.55574 12.2112H4.31699V15.9812H8.49324C12.312 15.9812 12.0782 12.2112 8.55574 12.2112Z" fill="#4B4B4B"/>
</svg>
