<svg width="31" height="31" viewBox="0 0 31 31" fill="none" xmlns="http://www.w3.org/2000/svg">
<g clip-path="url(#clip0)">
<path d="M15.567 0.711243C7.28199 0.711243 0.566986 7.42749 0.566986 15.7112C0.566986 23.995 7.28199 30.7112 15.567 30.7112C23.852 30.7112 30.567 23.995 30.567 15.7112C30.567 7.42749 23.852 0.711243 15.567 0.711243ZM27.9232 15.0125C24.7045 14.485 21.7445 14.4562 19.0445 14.9212C18.7395 14.2175 18.4232 13.515 18.0857 12.8212C20.9732 11.5712 23.292 9.87374 25.0207 7.71874C26.7082 9.71124 27.767 12.2425 27.9232 15.0125ZM23.1207 5.90999C21.6145 7.85249 19.5357 9.38874 16.8882 10.51C15.6182 8.18374 14.1657 5.91499 12.5282 3.71249C13.502 3.46624 14.517 3.31999 15.567 3.31999C18.4107 3.31999 21.027 4.29374 23.1207 5.90999ZM9.97574 4.66874C11.6395 6.84624 13.1145 9.09124 14.397 11.395C11.3595 12.2887 7.73324 12.7475 3.54199 12.7762C4.40699 9.23249 6.79324 6.28499 9.97574 4.66874ZM3.17574 15.7112L3.19199 15.3912C8.00324 15.385 12.1532 14.8312 15.6295 13.7387C15.9207 14.3325 16.1995 14.9287 16.467 15.5287C12.242 16.85 8.76074 19.5562 6.04574 23.6287C4.25574 21.48 3.17574 18.72 3.17574 15.7112ZM7.96199 25.4737C10.4232 21.6137 13.5645 19.1012 17.4595 17.94C18.6195 20.965 19.4707 24.0775 20.0132 27.265C15.827 28.8787 11.322 28.0975 7.96199 25.4737ZM22.4445 26.0112C21.897 23.07 21.0945 20.195 20.0445 17.39C22.3895 17.0587 24.9695 17.145 27.7932 17.635C27.247 21.1175 25.2582 24.125 22.4445 26.0112Z" fill="#4B4B4B"/>
</g>
<defs>
<clipPath id="clip0">
<rect width="30" height="30" fill="white" transform="translate(0.566986 0.711243)"/>
</clipPath>
</defs>
</svg>
