<svg width="31" height="31" viewBox="0 0 31 31" fill="none" xmlns="http://www.w3.org/2000/svg">
<g clip-path="url(#clip0)">
<path d="M15.567 3.41499C19.572 3.41499 20.047 3.42999 21.6295 3.50249C25.6945 3.68749 27.5932 5.61624 27.7782 9.65124C27.8507 11.2325 27.8645 11.7075 27.8645 15.7125C27.8645 19.7187 27.8495 20.1925 27.7782 21.7737C27.592 25.805 25.6982 27.7375 21.6295 27.9225C20.047 27.995 19.5745 28.01 15.567 28.01C11.562 28.01 11.087 27.995 9.50574 27.9225C5.43074 27.7362 3.54199 25.7987 3.35699 21.7725C3.28449 20.1912 3.26949 19.7175 3.26949 15.7112C3.26949 11.7062 3.28574 11.2325 3.35699 9.64999C3.54324 5.61624 5.43699 3.68624 9.50574 3.50124C11.0882 3.42999 11.562 3.41499 15.567 3.41499ZM15.567 0.711243C11.4932 0.711243 10.9832 0.728743 9.38324 0.801243C3.93574 1.05124 0.908244 4.07374 0.658244 9.52624C0.584494 11.1275 0.566994 11.6375 0.566994 15.7112C0.566994 19.785 0.584494 20.2962 0.656994 21.8962C0.906994 27.3437 3.92949 30.3712 9.38199 30.6212C10.9832 30.6937 11.4932 30.7112 15.567 30.7112C19.6407 30.7112 20.152 30.6937 21.752 30.6212C27.1945 30.3712 30.2295 27.3487 30.4757 21.8962C30.5495 20.2962 30.567 19.785 30.567 15.7112C30.567 11.6375 30.5495 11.1275 30.477 9.52749C30.232 4.08499 27.2057 1.05249 21.7532 0.802493C20.152 0.728743 19.6407 0.711243 15.567 0.711243V0.711243ZM15.567 8.00874C11.3132 8.00874 7.86449 11.4575 7.86449 15.7112C7.86449 19.965 11.3132 23.415 15.567 23.415C19.8207 23.415 23.2695 19.9662 23.2695 15.7112C23.2695 11.4575 19.8207 8.00874 15.567 8.00874ZM15.567 20.7112C12.8057 20.7112 10.567 18.4737 10.567 15.7112C10.567 12.95 12.8057 10.7112 15.567 10.7112C18.3282 10.7112 20.567 12.95 20.567 15.7112C20.567 18.4737 18.3282 20.7112 15.567 20.7112ZM23.5745 5.90499C22.5795 5.90499 21.7732 6.71124 21.7732 7.70499C21.7732 8.69874 22.5795 9.50499 23.5745 9.50499C24.5682 9.50499 25.3732 8.69874 25.3732 7.70499C25.3732 6.71124 24.5682 5.90499 23.5745 5.90499Z" fill="#4B4B4B"/>
</g>
<defs>
<clipPath id="clip0">
<rect width="30" height="30" fill="white" transform="translate(0.566994 0.711243)"/>
</clipPath>
</defs>
</svg>
