<svg width="23" height="31" viewBox="0 0 23 31" fill="none" xmlns="http://www.w3.org/2000/svg">
<path fill-rule="evenodd" clip-rule="evenodd" d="M20.957 22.5725L20.837 22.4875H16.7445C16.5532 22.4875 16.5445 21.9037 16.5407 21.71V14.5675C16.5407 14.4975 16.597 14.4412 16.667 14.4412H21.442C21.512 14.4412 21.5682 14.385 21.5682 14.315V7.10749C21.5682 7.03874 21.512 6.98249 21.442 6.98249H16.6882C16.6195 6.98249 16.5632 6.92624 16.5632 6.85624V0.836243C16.5632 0.767493 16.507 0.711243 16.437 0.711243H7.49949C6.88824 0.711243 6.18324 1.16374 6.08074 2.00374C5.65449 5.47624 3.72824 7.15999 0.735736 8.15999L0.401986 8.27124L0.316986 8.39124V14.3162C0.316986 14.3862 0.373236 14.4425 0.441986 14.4425H4.06699V22.1375C4.06699 27.9625 7.86699 30.7112 15.327 30.7112C18.3282 30.7112 21.637 29.6425 22.6207 28.3475L22.817 28.0875L20.957 22.5725ZM21.3807 27.895C20.4432 28.7962 18.1882 29.465 16.3457 29.4962L16.1395 29.4975C10.0782 29.4975 9.03699 24.8712 9.03699 22.1362V13.3375C9.03699 13.2675 8.98074 13.2112 8.91199 13.2112H5.43449C5.36449 13.2112 5.30824 13.155 5.30824 13.085L5.27824 9.25999L5.35824 9.14499C8.49074 7.92499 10.2395 5.90124 10.6995 2.15374C10.7257 1.94499 10.897 1.93999 10.8982 1.93999H15.207C15.2757 1.93999 15.3332 1.99624 15.3332 2.06624V8.08624C15.3332 8.15624 15.3895 8.21249 15.4582 8.21249H20.212C20.282 8.21249 20.3382 8.26874 20.3382 8.33749V13.0887C20.3382 13.1587 20.282 13.215 20.212 13.215H15.4382C15.3682 13.215 15.317 13.2712 15.317 13.3412V21.7225C15.3457 23.52 16.2107 24.4312 17.8982 24.4312C18.5782 24.4312 19.2932 24.2737 20.0045 24.0012C20.0707 23.975 20.1432 24.01 20.167 24.0775L21.4107 27.765L21.3807 27.895Z" fill="#4B4B4B"/>
</svg>
